<?xml version="1.0" encoding="UTF-8" standalone="no"?><!DOCTYPE svg PUBLIC "-//W3C//DTD SVG 1.1//EN" "http://www.w3.org/Graphics/SVG/1.1/DTD/svg11.dtd"><svg width="100%" height="100%" viewBox="0 0 2190 391" version="1.1" xmlns="http://www.w3.org/2000/svg" xmlns:xlink="http://www.w3.org/1999/xlink" xml:space="preserve" xmlns:serif="http://www.serif.com/" style="fill-rule:evenodd;clip-rule:evenodd;stroke-linejoin:round;stroke-miterlimit:2;"><g><path id="path84" d="M1498.79,1.148l47.394,86.262l47.76,-86.311l82.524,0l-0,263.426l-79.397,0l-0,-120.927l-2.883,-1.344l-48.542,82.622l-47.1,-80.96l-2.81,0.708l0,120.194l-79.03,0l0,-263.67l82.084,0Z" style="fill:#039afe;fill-rule:nonzero;"/><path id="path86" d="M692.56,264.745l-72.8,0l-77.614,-115.406l0,115.162l-80.08,-0l-0,-263.133l77.442,0l70.846,105.292l2.443,-0.488l0,-104.657l79.763,-0l0,263.23Z" style="fill:#039afe;fill-rule:nonzero;"/><path id="path88" d="M1959.98,1.295l76.709,-0l72.776,108.101l0,-107.735l80.472,0l-0,262.84l-73.07,-0c-24.674,-36.645 -50.081,-74.364 -77.002,-114.38l-0,114.331l-79.885,-0l-0,-263.157Z" style="fill:#039afe;fill-rule:nonzero;"/><path id="path90" d="M236.97,265.136l-91.782,-0l-40.896,-76.148c-4.11,-1.439 -8.61,-1.308 -12.63,0.367l-0,75.341l-80.814,0l0,-262.155c3.005,-2.956 6.45,-2.052 9.577,-2.004c37.426,0.367 74.877,-1.026 112.377,0.929c10.165,0.488 20.256,1.994 30.122,4.495c35.642,9.185 59.339,30.61 64.885,67.719c5.741,38.355 -2.443,72.214 -37.842,94.665c-1.368,0.88 -2.663,1.857 -3.933,2.859c-0.269,0.195 -0.391,0.659 -0.855,1.514l51.791,92.418Zm-144.893,-137.637l25.456,-0c2.456,-0.013 4.907,-0.225 7.329,-0.635c13.632,-2.272 20.961,-10.92 21.865,-25.261c1.001,-15.928 -5.399,-26.872 -18.811,-30.073c-11.824,-2.711 -23.893,-1.026 -35.741,-1.075l-0.098,57.044Z" style="fill:#049afe;fill-rule:nonzero;"/><path id="path92" d="M1354.83,172.743c16.807,29.902 33.859,60.219 51.571,91.758l-91.758,-0l-40.309,-75.024c-3.836,-2.296 -7.451,-1.441 -12.924,-0.757l0,76.172l-80.789,-0l0,-262.767c3.225,-2.443 7.012,-1.636 10.578,-1.612c36.987,0.391 74.022,-1.221 110.985,1.099c9.332,0.388 18.611,1.606 27.727,3.64c35.619,8.82 60.855,28.876 67.182,66.889c6.474,39.088 -1.759,72.801 -37.084,95.887c-1.344,0.904 -2.639,1.881 -3.909,2.858c-0.486,0.574 -0.912,1.196 -1.27,1.857Zm-93.151,-45.782c11.531,0 21.987,0.855 32.418,-0.195c14.658,-1.49 21.987,-11.189 22.28,-26.873c0.196,-16.612 -7.109,-27.068 -21.718,-28.9c-10.96,-1.334 -22.047,-1.227 -32.98,0.317l0,55.651Z" style="fill:#049afe;fill-rule:nonzero;"/><path id="path94" d="M719.921,0.171c49.055,2.443 98.159,-5.423 145.846,8.941c49.006,14.658 78.517,52.988 81.253,104.047c1.075,19.91 1.295,39.844 -3.469,59.437c-12.386,50.96 -51.815,84.332 -106.953,90.537c-38.526,4.324 -77.149,1.294 -115.48,2.443c-3.127,-9.113 -4.25,-244.493 -1.197,-265.405Zm80.985,192.115c22.744,0.66 44.755,-0.537 55.7,-22.793c12.679,-25.748 13.216,-53.256 -3.005,-77.93c-12.215,-18.42 -32.54,-18.249 -52.695,-18.152l-0,118.875Z" style="fill:#049afe;fill-rule:nonzero;"/><path id="path96" d="M327.653,164.412l0,30.146l112.988,0l-0,70.236l-193.777,-0l0,-263.621l191.847,-0l-0,69.307l-109.934,-0c-3.151,10.065 -1.002,19.153 -1.564,29.315l103.827,0l-0,64.544l-103.387,0.073Z" style="fill:#039afe;fill-rule:nonzero;"/><path id="path98" d="M964.463,1.002l192.018,-0l-0,69.527l-110.985,-0l0,28.851l102.923,0l-0,64.812l-102.312,0c-2.321,10.358 -0.904,19.544 -1.124,30.318l113.599,-0l-0,70.015l-194.119,0l0,-263.523Z" style="fill:#039afe;fill-rule:nonzero;"/><path id="path100" d="M1860.79,0l90.903,264.696l-86.457,0c-3.86,-11.97 -7.915,-24.576 -11.995,-37.157l-73.069,-0l-11.238,36.937l-85.26,0c30.538,-88.655 60.562,-176.431 90.781,-264.476l86.335,0Zm-42.801,104.095l-2.589,0c-5.79,20.448 -11.58,40.895 -17.614,62.149l38.208,0c-6.205,-21.4 -12.117,-41.775 -18.005,-62.149Z" style="fill:#039afe;fill-rule:nonzero;"/></g><g><path d="M30.662,369.002l9.346,19.531l28.877,0l-0,-2.31l-11.971,-22.682c6.511,-3.99 10.816,-10.71 10.816,-21.421c-0,-21.947 -17.746,-26.987 -36.018,-27.092l-31.712,0l0,73.505l28.667,0l0,-19.531l1.995,-0Zm-2.31,-22.052l0,-9.87l3.99,-0c4.726,-0 6.931,1.575 6.931,5.04c-0,3.57 -2.205,4.725 -6.931,4.83l-3.99,0Z" style="fill:#f20d5e;fill-rule:nonzero;"/><path d="M72.35,315.028l0,73.505l28.667,0l0,-25.622l13.126,0l0,25.622l28.562,0l0,-73.505l-28.562,0l0,24.677l-13.126,-0l0,-24.677l-28.667,0Z" style="fill:#f20d5e;fill-rule:nonzero;"/><path d="M146.906,388.533l58.909,0l-0,-21.631l-30.347,-0l-0,-4.831l29.192,0l-0,-20.476l-29.192,-0l-0,-4.935l30.347,-0l-0,-21.632l-58.909,0l-0,73.505Z" style="fill:#f20d5e;fill-rule:nonzero;"/><path d="M211.275,315.028l0,73.505l55.339,0l0,-23.521l-26.672,-0l0,-49.984l-28.667,0Z" style="fill:#f20d5e;fill-rule:nonzero;"/><path d="M314.393,388.533l-0,-74.03l-23.417,-0l-23.417,25.517l13.966,16.801l5.146,-5.25l-0.946,14.911l0,22.051l28.668,0Z" style="fill:#f20d5e;fill-rule:nonzero;"/><path d="M353.77,313.663c-24.151,-0 -35.282,15.751 -35.282,37.908c-0,22.156 12.286,38.537 35.282,38.537c22.892,0 35.178,-16.381 35.178,-38.537c-0,-22.157 -11.131,-37.908 -35.178,-37.908Zm0,54.289c-6.3,-0 -7.56,-11.026 -7.56,-15.856c-0,-5.041 0.945,-16.066 7.56,-16.066c6.511,-0 7.456,11.025 7.456,16.066c-0,4.83 -1.26,15.856 -7.456,15.856Z" style="fill:#f20d5e;fill-rule:nonzero;"/><path d="M462.663,388.533l0,-50.508l15.646,-0l0,-22.997l-59.959,0l-0,22.997l15.646,-0l0,50.508l28.667,0Z" style="fill:#f20d5e;fill-rule:nonzero;"/><path d="M482.405,388.533l58.909,0l-0,-21.631l-30.347,-0l-0,-4.831l29.192,0l-0,-20.476l-29.192,-0l-0,-4.935l30.347,-0l-0,-21.632l-58.909,0l-0,73.505Z" style="fill:#f20d5e;fill-rule:nonzero;"/><path d="M571.451,355.141l11.026,17.011l10.08,0l11.026,-17.011l-1.995,17.011l0,16.381l28.247,0l0,-73.505l-27.617,0l-14.701,21.002l-14.701,-21.002l-27.722,0l0,73.505l28.352,0l0,-16.381l-1.995,-17.011Z" style="fill:#f20d5e;fill-rule:nonzero;"/><path d="M664.278,388.533l-0,-17.116l2.52,0c18.166,-0.105 35.282,-6.3 35.282,-28.247c0,-21.947 -17.011,-28.037 -35.282,-28.142l-31.188,0l0,73.505l28.668,0Zm-0.315,-38.958l-0,-12.39l3.465,-0c4.725,-0 6.93,2.625 6.93,6.09c0,3.57 -2.205,6.195 -6.93,6.3l-3.465,0Z" style="fill:#f20d5e;fill-rule:nonzero;"/><path d="M704.705,351.571c0.21,51.243 79.386,50.718 79.596,-0c-0.21,-51.349 -79.386,-51.454 -79.596,-0Zm28.352,-0.105c0.105,-17.117 22.472,-17.117 22.577,-0c-0.105,16.906 -22.472,17.011 -22.577,-0Z" style="fill:#f20d5e;fill-rule:nonzero;"/><path d="M820.739,369.002l9.345,19.531l28.877,0l0,-2.31l-11.97,-22.682c6.51,-3.99 10.815,-10.71 10.815,-21.421c0,-21.947 -17.746,-26.987 -36.017,-27.092l-31.712,0l-0,73.505l28.667,0l-0,-19.531l1.995,-0Zm-2.31,-22.052l-0,-9.87l3.99,-0c4.725,-0 6.93,1.575 6.93,5.04c0,3.57 -2.205,4.725 -6.93,4.83l-3.99,0Z" style="fill:#f20d5e;fill-rule:nonzero;"/><path d="M920.286,388.533l29.717,0l-0,-2.835l-28.352,-71.51l-32.447,-0l-28.352,71.51l-0,2.835l29.717,0l3.15,-8.505l23.312,-0l3.255,8.505Zm-14.911,-45.993l4.41,18.481l-8.716,0l4.306,-18.481Z" style="fill:#f20d5e;fill-rule:nonzero;"/><path d="M983.92,369.002l9.346,19.531l28.877,0l0,-2.31l-11.971,-22.682c6.511,-3.99 10.816,-10.71 10.816,-21.421c0,-21.947 -17.746,-26.987 -36.017,-27.092l-31.713,0l0,73.505l28.667,0l0,-19.531l1.995,-0Zm-2.31,-22.052l0,-9.87l3.991,-0c4.725,-0 6.93,1.575 6.93,5.04c0,3.57 -2.205,4.725 -6.93,4.83l-3.991,0Z" style="fill:#f20d5e;fill-rule:nonzero;"/><path d="M1106.46,316.708l0,-1.68l-31.502,0l-7.351,11.761l-4.83,11.761l-4.83,-11.761l-7.351,-11.761l-31.502,0l-0,1.68l29.297,46.203l0,25.622l28.667,0l0,-25.622l29.402,-46.203Z" style="fill:#f20d5e;fill-rule:nonzero;"/><path d="M1194.67,366.062l2.415,9.555l4.725,13.336l28.247,0l23.837,-71.72l-0,-2.205l-29.192,0l-6.616,19.846l-3.15,20.162l-8.296,-23.207l-24.466,0l-8.296,23.207l-3.045,-20.162l-6.616,-19.846l-29.192,0l0,2.205l23.837,71.72l28.247,0l4.725,-13.336l2.415,-9.555l0.421,-0Z" style="fill:#f20d5e;fill-rule:nonzero;"/><path d="M1253.06,351.571c0.21,51.243 79.385,50.718 79.595,-0c-0.21,-51.349 -79.385,-51.454 -79.595,-0Zm28.352,-0.105c0.105,-17.117 22.471,-17.117 22.576,-0c-0.105,16.906 -22.471,17.011 -22.576,-0Z" style="fill:#f20d5e;fill-rule:nonzero;"/><path d="M1369.09,369.002l9.346,19.531l28.877,0l-0,-2.31l-11.971,-22.682c6.51,-3.99 10.816,-10.71 10.816,-21.421c-0,-21.947 -17.747,-26.987 -36.018,-27.092l-31.712,0l-0,73.505l28.667,0l-0,-19.531l1.995,-0Zm-2.31,-22.052l-0,-9.87l3.99,-0c4.725,-0 6.931,1.575 6.931,5.04c-0,3.57 -2.206,4.725 -6.931,4.83l-3.99,0Z" style="fill:#f20d5e;fill-rule:nonzero;"/><path d="M1482.6,315.028l-30.242,0l-4.515,7.981l-8.401,14.701l0,-22.682l-28.667,0l-0,73.505l28.667,0l0,-21.211l14.176,21.211l32.447,0l0,-0.945l-25.936,-36.227l22.471,-35.283l0,-1.05Z" style="fill:#f20d5e;fill-rule:nonzero;"/><path d="M1545.4,388.533l29.717,0l-0,-2.835l-28.352,-71.51l-32.448,-0l-28.352,71.51l0,2.835l29.717,0l3.151,-8.505l23.311,-0l3.256,8.505Zm-14.911,-45.993l4.41,18.481l-8.716,0l4.306,-18.481Z" style="fill:#f20d5e;fill-rule:nonzero;"/><path d="M1609.03,369.002l9.346,19.531l28.877,0l-0,-2.31l-11.971,-22.682c6.511,-3.99 10.816,-10.71 10.816,-21.421c-0,-21.947 -17.746,-26.987 -36.018,-27.092l-31.712,0l-0,73.505l28.667,0l0,-19.531l1.995,-0Zm-2.31,-22.052l0,-9.87l3.99,-0c4.726,-0 6.931,1.575 6.931,5.04c-0,3.57 -2.205,4.725 -6.931,4.83l-3.99,0Z" style="fill:#f20d5e;fill-rule:nonzero;"/><path d="M1650.19,351.571c0.21,51.243 79.386,50.718 79.596,-0c-0.21,-51.349 -79.386,-51.454 -79.596,-0Zm28.352,-0.105c0.105,-17.117 22.472,-17.117 22.577,-0c-0.105,16.906 -22.472,17.011 -22.577,-0Z" style="fill:#f20d5e;fill-rule:nonzero;"/><path d="M1763.5,361.966l0,-46.938l-28.772,0l0,47.043c0.105,19.112 16.801,27.932 33.918,27.932c17.116,0 33.707,-8.82 33.812,-27.932l0,-47.043l-28.667,0l-0,46.938c-0.105,3.151 -2.52,4.621 -5.25,4.621c-2.521,-0 -5.041,-1.68 -5.041,-4.621Z" style="fill:#f20d5e;fill-rule:nonzero;"/><path d="M1833.12,359.551l20.372,28.982l23.941,0l0,-73.505l-28.457,0l0,13.441l1.785,15.436l-20.161,-28.877l-23.942,0l0,73.505l28.667,0l0,-12.706l-2.205,-16.276Z" style="fill:#f20d5e;fill-rule:nonzero;"/><path d="M1883.31,315.028l-0,73.505l34.337,0c21.422,0 41.373,-8.61 41.373,-36.647c0,-28.037 -19.846,-36.858 -41.373,-36.858l-34.337,0Zm28.562,51.034l-0,-28.562l5.775,-0c8.506,-0 12.706,7.245 12.706,14.491c0,7.035 -4.305,14.071 -12.706,14.071l-5.775,-0Z" style="fill:#f20d5e;fill-rule:nonzero;"/><path d="M1988.95,388.533l28.667,0l0,-24.677l29.193,0l-0,-21.526l-29.193,-0l0,-4.83l30.348,-0l-0,-22.472l-59.015,0l0,73.505Z" style="fill:#f20d5e;fill-rule:nonzero;"/><path d="M2051.85,315.028l-0,20.686l12.286,0l-0,32.133l-12.286,-0l-0,20.686l52.399,0l-0,-20.686l-11.026,-0l-0,-32.133l11.026,0l-0,-20.686l-52.399,0Z" style="fill:#f20d5e;fill-rule:nonzero;"/><path d="M2148.35,335.294l-4.201,-9.66l-6.825,-10.606l-30.347,0l-0,2.1l21.736,34.128l-22.051,35.807l-0,1.47l30.767,0l5.67,-9.555l5.251,-11.761l5.145,11.761l5.776,9.555l30.662,0l-0,-1.47l-22.052,-35.807l21.842,-34.128l-0,-2.1l-30.347,0l-6.931,10.606l-4.095,9.66Z" style="fill:#f20d5e;fill-rule:nonzero;"/></g></svg>
